name Walk4.mot
datacolumns 19
datarows 25
range 1.75800000 1.78200000
endheader

                time	   L_ground_force_vx	   L_ground_force_vy	   L_ground_force_vz	   L_ground_force_px	   L_ground_force_py	   L_ground_force_pz	   R_ground_force_vx	   R_ground_force_vy	   R_ground_force_vz	   R_ground_force_px	   R_ground_force_py	   R_ground_force_pz	   L_ground_torque_x	   L_ground_torque_y	   L_ground_torque_z	   R_ground_torque_x	   R_ground_torque_y	   R_ground_torque_z	
          1.75800000	          0.04772778	          0.16749658	         -0.00422433	         -0.00036623	          0.00000000	         -0.00007783	        -33.06278635	        557.13203539	        -37.84871358	          0.13022754	          0.00000000	          0.06396418	          0.00000000	         -0.00025081	          0.00000000	          0.00000000	          1.44280460	          0.00000000	
          1.75900000	          0.04585498	          0.16144302	         -0.00404761	         -0.00038712	          0.00000000	         -0.00008287	        -32.77078604	        557.35407303	        -37.83310949	          0.13065220	          0.00000000	          0.06386895	          0.00000000	         -0.00021486	          0.00000000	          0.00000000	          1.46627531	          0.00000000	
          1.76000000	          0.04396813	          0.15529411	         -0.00387061	         -0.00040477	          0.00000000	         -0.00008718	        -32.47795130	        557.59778203	        -37.81734859	          0.13107565	          0.00000000	          0.06377220	          0.00000000	         -0.00018117	          0.00000000	          0.00000000	          1.48993931	          0.00000000	
          1.76100000	          0.04207556	          0.14908118	         -0.00369404	         -0.00041939	          0.00000000	         -0.00009078	        -32.18427790	        557.86366215	        -37.80139046	          0.13149780	          0.00000000	          0.06367394	          0.00000000	         -0.00014965	          0.00000000	          0.00000000	          1.51379656	          0.00000000	
          1.76200000	          0.04018492	          0.14283316	         -0.00351853	         -0.00043118	          0.00000000	         -0.00009374	        -31.88977106	        558.15222627	        -37.78519141	          0.13191855	          0.00000000	          0.06357415	          0.00000000	         -0.00012025	          0.00000000	          0.00000000	          1.53784694	          0.00000000	
          1.76300000	          0.03830318	          0.13657663	         -0.00334464	         -0.00044034	          0.00000000	         -0.00009609	        -31.59444605	        558.46399795	        -37.76870476	          0.13233781	          0.00000000	          0.06347285	          0.00000000	         -0.00009289	          0.00000000	          0.00000000	          1.56209001	          0.00000000	
          1.76400000	          0.03643669	          0.13033598	         -0.00317290	         -0.00044705	          0.00000000	         -0.00009788	        -31.29832870	        558.79950879	        -37.75188129	          0.13275550	          0.00000000	          0.06337004	          0.00000000	         -0.00006751	          0.00000000	          0.00000000	          1.58652492	          0.00000000	
          1.76500000	          0.03459121	          0.12413342	         -0.00300377	         -0.00045151	          0.00000000	         -0.00009915	        -31.00145587	        559.15929585	        -37.73466977	          0.13317154	          0.00000000	          0.06326574	          0.00000000	         -0.00004403	          0.00000000	          0.00000000	          1.61115040	          0.00000000	
          1.76600000	          0.03277193	          0.11798915	         -0.00283766	         -0.00045388	          0.00000000	         -0.00009993	        -30.70387590	        559.54389901	        -37.71701760	          0.13358583	          0.00000000	          0.06315997	          0.00000000	         -0.00002238	          0.00000000	          0.00000000	          1.63596477	          0.00000000	
          1.76700000	          0.03098350	          0.11192144	         -0.00267496	         -0.00045434	          0.00000000	         -0.00010027	        -30.40564878	        559.95385818	        -37.69887119	          0.13399830	          0.00000000	          0.06305275	          0.00000000	         -0.00000249	          0.00000000	          0.00000000	          1.66096608	          0.00000000	
          1.76800000	          0.02923004	          0.10594671	         -0.00251599	         -0.00045303	          0.00000000	         -0.00010020	        -30.10684612	        560.38971008	        -37.68017615	          0.13440889	          0.00000000	          0.06294411	          0.00000000	          0.00001573	          0.00000000	          0.00000000	          1.68615209	          0.00000000	
          1.76900000	          0.02751522	          0.10007963	         -0.00236102	         -0.00045013	          0.00000000	         -0.00009976	        -29.80755071	        560.85198418	        -37.66087735	          0.13481753	          0.00000000	          0.06283409	          0.00000000	          0.00003233	          0.00000000	          0.00000000	          1.71152028	          0.00000000	
          1.77000000	          0.02584223	          0.09433322	         -0.00221031	         -0.00044578	          0.00000000	         -0.00009898	        -29.50785585	        561.34119796	        -37.64091911	          0.13522415	          0.00000000	          0.06272273	          0.00000000	          0.00004740	          0.00000000	          0.00000000	          1.73706779	          0.00000000	
          1.77100000	          0.02421383	          0.08871892	         -0.00206406	         -0.00044011	          0.00000000	         -0.00009789	        -29.20786436	        561.85785120	        -37.62024567	          0.13562871	          0.00000000	          0.06261007	          0.00000000	          0.00006101	          0.00000000	          0.00000000	          1.76279128	          0.00000000	
          1.77200000	          0.02263238	          0.08324673	         -0.00192245	         -0.00043325	          0.00000000	         -0.00009653	        -28.90768740	        562.40241939	        -37.59880198	          0.13603117	          0.00000000	          0.06249615	          0.00000000	          0.00007323	          0.00000000	          0.00000000	          1.78868684	          0.00000000	
          1.77300000	          0.02109988	          0.07792523	         -0.00178561	         -0.00042535	          0.00000000	         -0.00009492	        -28.60744337	        562.97534667	        -37.57653476	          0.13643148	          0.00000000	          0.06238103	          0.00000000	          0.00008414	          0.00000000	          0.00000000	          1.81474995	          0.00000000	
          1.77400000	          0.01961794	          0.07276173	         -0.00165366	         -0.00041651	          0.00000000	         -0.00009308	        -28.30725690	        563.57703829	        -37.55339372	          0.13682961	          0.00000000	          0.06226475	          0.00000000	          0.00009380	          0.00000000	          0.00000000	          1.84097536	          0.00000000	
          1.77500000	          0.01818787	          0.06776231	         -0.00152668	         -0.00040684	          0.00000000	         -0.00009105	        -28.00725841	        564.20785320	        -37.52933279	          0.13722553	          0.00000000	          0.06214736	          0.00000000	          0.00010228	          0.00000000	          0.00000000	          1.86735704	          0.00000000	
          1.77600000	          0.01681066	          0.06293189	         -0.00140472	         -0.00039646	          0.00000000	         -0.00008885	        -27.70758389	        564.86809700	        -37.50431140	          0.13761922	          0.00000000	          0.06202890	          0.00000000	          0.00010966	          0.00000000	          0.00000000	          1.89388807	          0.00000000	
          1.77700000	          0.01548703	          0.05827438	         -0.00128783	         -0.00038547	          0.00000000	         -0.00008650	        -27.40837484	        565.55801564	        -37.47829546	          0.13801065	          0.00000000	          0.06190943	          0.00000000	          0.00011599	          0.00000000	          0.00000000	          1.92056061	          0.00000000	
          1.77800000	          0.01421741	          0.05379266	         -0.00117601	         -0.00037395	          0.00000000	         -0.00008402	        -27.10977784	        566.27779034	        -37.45125825	          0.13839978	          0.00000000	          0.06178897	          0.00000000	          0.00012135	          0.00000000	          0.00000000	          1.94736591	          0.00000000	
          1.77900000	          0.01300202	          0.04948872	         -0.00106925	         -0.00036200	          0.00000000	         -0.00008143	        -26.81194361	        567.02753400	        -37.42318106	          0.13878659	          0.00000000	          0.06166757	          0.00000000	          0.00012579	          0.00000000	          0.00000000	          1.97429439	          0.00000000	
          1.78000000	          0.01184084	          0.04536372	         -0.00096753	         -0.00034970	          0.00000000	         -0.00007876	        -26.51502537	        567.80728928	        -37.39405382	          0.13917107	          0.00000000	          0.06154529	          0.00000000	          0.00012939	          0.00000000	          0.00000000	          2.00133585	          0.00000000	
          1.78100000	          0.01073363	          0.04141802	         -0.00087080	         -0.00033712	          0.00000000	         -0.00007602	        -26.21917680	        568.61702783	        -37.36387593	          0.13955318	          0.00000000	          0.06142216	          0.00000000	          0.00013218	          0.00000000	          0.00000000	          2.02847957	          0.00000000	
          1.78200000	          0.00968001	          0.03765130	         -0.00077901	         -0.00032434	          0.00000000	         -0.00007322	        -25.92454960	        569.45665013	        -37.33265720	          0.13993293	          0.00000000	          0.06129824	          0.00000000	          0.00013424	          0.00000000	          0.00000000	          2.05571453	          0.00000000	
